<svg xmlns="http://www.w3.org/2000/svg" width="71" height="105" viewBox="0 0 70.6 104.8">
  <g transform="matrix(1.3792701 0 0 0.99166471 -4767.0132 -2794.6361)">
    <path d="m3458.5 2874.3c0 2.4 1.7 5.4 3.2 6.6 1.2 1 2.9 0 4.2-0.7 3.1-2.5 6.7-2.9 9.8-5.8 3.4-0.6 6.6-3.1 10.1-3.1 3.8-1.2-4.7-1.7-1.9-5.9 0.3-3.1 2.7-4.2 3-7 1.3-1.6 1.5-3.8 1.7-6.1 0.6-2.7 0.3-5.7 0-9.1-0.8-8.4-1.6-16.8-2.5-25.2 1.3 2.4 0.8 8.5 1.6 12.1 0.6 6 1.2 12.1 1.8 18.1 0.3-3.4-0.8-8.3-1-12.2-0.6-6-1.2-12-1.8-17.9 1.2 3.1 1 9 1.7 13.1 0.7 5.9 1.1 12 1.9 17.7 0.6 2.7 1 6.1 2.9 2.4 3.4-0.1 0.2-4.8-0.7-6.6 0.8-4-0.6-9.5 2.2-12.1 2.9-2.7 6.5 1.5 6 6.5 0.6 3.3-2.4 7.6-0.7 9.9 1.2 0.4 3.3 0.6 5 1.3 1.3 2.7 2.6 6.6 2.4 10-1.1 3-1.1 6.6-1.9 9.6-1.3 4-4.2 5.8-3.6 10.8-1.2 1.1 0.1 4.7-1.2 5 0.2-1.3 1-6.4-0.3-2.1-3.3 3.1-1.3 9.6-1.7 14.6 0.2 8.5 0.4 17.1 0.6 25.6-1.1-2.7-0.3-8.7-0.7-12.5-0.1-3.5-0.1-8.8-0.3-11.2 0.1 7.9 0.2 15.8 0.3 23.7-1-3-0.3-8.5-0.6-12.5-0.1-8.1-0.2-16.3-0.3-24.4-2.5 0.3-6.6 4.1-5.5 9.3 0 4.7-1.4 5.4-2.2 9.6-1 2.7 0.8 7.1 0.2 9.9 0 2.6-4.9 2.3-5.2-0.2-0.5-0.5-3.3-0.4-4.7-2-1-1.1-0.8-3.8-0.8-4.9 0.3-2.5 5.3-0.2 6.5-1.2 1.4-1.2 0.1-3.1-0.3-6.6-0.4-3.2-1.1-7.3-0.8-11 0.1-1.6 0.6-5.7-0.4-6.8-1.8-4.5-3.8 0.8-6.8-0.6-3.9 0.5-6.9 7.1-11.1 4.8-0.9 0.1-1.8 0.6-2.7 0.9-0.5 0.1-1.1-0.5-1.6-0.4-1.5 0.4-2.8 1.4-3.8 1.5-0.7 0.1-1.6 0.5-2 0-0.3-0.4-0.1-1.7-0.2-2.6l-0.3-10.8 0.6-2.9zm-2 11.4c0.3-0.8-0.6 0.2 0 0zm32.1-14.6c0.6-2.2-1.4 0.6 0 0zm1.4-17c1.1-0.8-1.6-3-0.2 0.1zm1.1-0.3c-0.1-1.1-0.5-0.4 0 0zm-1-0.7c-0.2-1.7-0.5-0.4 0 0zm4.1-6c-0.8-2.1-1.2-9.4-1.5-2.9-0.1 1.3 0.9 3.2 1.5 2.9z"/>
  </g>
</svg>